# xmcd CD database file
#
# Track frame offsets:
#	150
#	4462
#	25907
#	46748
#	70852
#	86859
#	101144
#	115484
#	130300
#	140825
#	160445
#	173892
#	184458
#	194662
#	203944
#	219130
#
# Disc length: 3176 seconds
#
# Revision: 0
# Processed by: cddbd v1.5.2PL0 Copyright (c) Steve Scherf et al.
# Submitted via: CDex 1.70beta2
#
DISCID=f90c6610
DTITLE=Tony Bennett - 24.05.1996 live - Berlin
DYEAR=1996
DGENRE=Jazz
TTITLE0=Radio Intro
TTITLE1=Instrumental
TTITLE2=I'm Getting Sentimental Over You - Instrumental
TTITLE3=Someone To Watch Over Me - Instrumental
TTITLE4=The Way You Look Tonight - Instrumental
TTITLE5=The Best Is Yet To Come
TTITLE6=It Had To Be You
TTITLE7=Speak Low
TTITLE8=I Love A Piano
TTITLE9=The Girl I Love
TTITLE10=Stranger In Paradise
TTITLE11=Shakin' The Blues Away
TTITLE12=Smile
TTITLE13=I Got Rythm
TTITLE14=This Is All I Ask
TTITLE15=I Wann Be Around
EXTD=YEAR: 1996
EXTT0=
EXTT1=
EXTT2=
EXTT3=
EXTT4=
EXTT5=
EXTT6=
EXTT7=
EXTT8=
EXTT9=
EXTT10=
EXTT11=
EXTT12=
EXTT13=
EXTT14=
EXTT15=
PLAYORDER=
